<svg width="319" height="172" viewBox="0 0 319 172" fill="none" xmlns="http://www.w3.org/2000/svg">
<g filter="url(#filter0_i_3_6)">
<path d="M21 29L77.6349 155.89C77.9919 156.69 79.1316 156.677 79.4703 155.869L131.786 31.0936C132.122 30.2916 133.247 30.2618 133.612 31.0512C139.474 43.7343 171.234 112.425 192.5 158M21 29L15 88M21 29L66.5 64M206 120.5L218.213 96M304.701 160.5L290.307 128.25L275.913 96M275.913 96H218.213M275.913 96L261.519 63.75L248.036 33.5416C247.684 32.7524 246.564 32.7515 246.21 33.5401L218.213 96" stroke="url(#paint0_linear_3_6)" stroke-width="30"/>
</g>
<defs>
<filter id="filter0_i_3_6" x="0.0769691" y="0.691986" width="318.322" height="174.79" filterUnits="userSpaceOnUse" color-interpolation-filters="sRGB">
<feFlood flood-opacity="0" result="BackgroundImageFix"/>
<feBlend mode="normal" in="SourceGraphic" in2="BackgroundImageFix" result="shape"/>
<feColorMatrix in="SourceAlpha" type="matrix" values="0 0 0 0 0 0 0 0 0 0 0 0 0 0 0 0 0 0 127 0" result="hardAlpha"/>
<feOffset dy="4"/>
<feGaussianBlur stdDeviation="2"/>
<feComposite in2="hardAlpha" operator="arithmetic" k2="-1" k3="1"/>
<feColorMatrix type="matrix" values="0 0 0 0 0 0 0 0 0 0 0 0 0 0 0 0 0 0 0.25 0"/>
<feBlend mode="normal" in2="shape" result="effect1_innerShadow_3_6"/>
</filter>
<linearGradient id="paint0_linear_3_6" x1="15" y1="17.5" x2="222.5" y2="206.5" gradientUnits="userSpaceOnUse">
<stop stop-color="white"/>
<stop offset="1" stop-color="white" stop-opacity="0"/>
</linearGradient>
</defs>
</svg>
