<svg width="24" height="24" viewBox="0 0 24 24" fill="none" xmlns="http://www.w3.org/2000/svg">
<path d="M18.5 9H16.5M16.5 9H14.5M16.5 9V7M16.5 9V11" stroke="white" stroke-width="1.5" stroke-linecap="round"/>
<path d="M12 5.574L11.452 6.086C11.5222 6.16109 11.607 6.22096 11.7013 6.26189C11.7956 6.30283 11.8972 6.32395 12 6.32395C12.1028 6.32395 12.2044 6.30283 12.2987 6.26189C12.393 6.22096 12.4778 6.16109 12.548 6.086L12 5.574ZM2.652 13.682C2.70148 13.7692 2.76793 13.8456 2.84743 13.9066C2.92693 13.9677 3.01787 14.0122 3.11486 14.0375C3.21186 14.0628 3.31294 14.0684 3.41215 14.054C3.51135 14.0396 3.60665 14.0054 3.69243 13.9536C3.7782 13.9017 3.85271 13.8331 3.91154 13.752C3.97037 13.6708 4.01233 13.5787 4.03495 13.481C4.05756 13.3834 4.06037 13.2821 4.0432 13.1834C4.02603 13.0846 3.98924 12.9903 3.935 12.906L2.652 13.682ZM6.537 16.171C6.46924 16.0967 6.38722 16.0368 6.29584 15.9948C6.20445 15.9529 6.10557 15.9297 6.00505 15.9268C5.90454 15.9238 5.80446 15.941 5.71075 15.9775C5.61705 16.014 5.53164 16.069 5.4596 16.1391C5.38756 16.2093 5.33037 16.2932 5.29142 16.3859C5.25248 16.4786 5.23257 16.5782 5.23288 16.6788C5.2332 16.7793 5.25374 16.8788 5.29327 16.9713C5.3328 17.0637 5.39052 17.1473 5.463 17.217L6.537 16.171ZM2.75 9.318C2.75 6.413 4.018 4.618 5.586 4.003C7.151 3.39 9.34 3.828 11.452 6.086L12.548 5.062C10.16 2.508 7.349 1.702 5.039 2.606C2.732 3.51 1.25 5.992 1.25 9.318H2.75ZM15.51 19.96C17.003 18.749 18.791 17.126 20.213 15.313C21.62 13.519 22.75 11.434 22.75 9.316H21.25C21.25 10.928 20.37 12.68 19.032 14.387C17.708 16.076 16.016 17.619 14.566 18.795L15.51 19.96ZM22.75 9.316C22.75 5.991 21.268 3.509 18.96 2.606C16.65 1.701 13.84 2.506 11.452 5.061L12.548 6.086C14.66 3.828 16.849 3.389 18.414 4.002C19.982 4.616 21.25 6.412 21.25 9.316H22.75ZM8.49 19.961C9.76 20.993 10.642 21.75 12 21.75V20.25C11.277 20.25 10.827 19.926 9.434 18.796L8.49 19.961ZM14.566 18.795C13.173 19.925 12.723 20.25 12 20.25V21.75C13.358 21.75 14.241 20.993 15.511 19.961L14.566 18.795ZM3.936 12.906C3.187 11.67 2.75 10.455 2.75 9.318H1.25C1.25 10.83 1.826 12.318 2.652 13.682L3.935 12.906H3.936ZM9.434 18.796C8.41861 17.9775 7.45133 17.101 6.537 16.171L5.463 17.217C6.41793 18.1892 7.42928 19.1054 8.49 19.961L9.434 18.796Z" fill="white"/>
</svg>
